<svg width="26" height="26" viewBox="0 0 26 26" fill="none" xmlns="http://www.w3.org/2000/svg">
<path d="M19.7059 19.2291H8.16841C7.09591 19.2291 6.06674 18.7741 5.34091 17.9833C4.61507 17.1925 4.24675 16.1308 4.33341 15.0583L5.23258 4.2683C5.26508 3.93246 5.14591 3.60747 4.91841 3.3583C4.69091 3.10913 4.37674 2.97913 4.04091 2.97913H2.16675C1.72258 2.97913 1.35425 2.61079 1.35425 2.16663C1.35425 1.72246 1.72258 1.35413 2.16675 1.35413H4.05175C4.84259 1.35413 5.59008 1.68996 6.12091 2.26412C6.41341 2.58912 6.63008 2.9683 6.74924 3.3908H20.2801C21.3743 3.3908 22.3817 3.82413 23.1184 4.60413C23.8442 5.39496 24.2126 6.42413 24.1259 7.5183L23.5409 15.6433C23.4217 17.6258 21.6884 19.2291 19.7059 19.2291ZM6.80341 5.00495L5.95842 15.1883C5.90425 15.8166 6.11008 16.4124 6.53258 16.8783C6.95508 17.3441 7.54007 17.5933 8.16841 17.5933H19.7059C20.8326 17.5933 21.8509 16.64 21.9376 15.5133L22.5226 7.3883C22.5659 6.74913 22.3601 6.14247 21.9376 5.6983C21.5151 5.2433 20.9301 4.99411 20.2909 4.99411H6.80341V5.00495Z" fill="white"/>
<path d="M17.6042 24.6458C16.4125 24.6458 15.4375 23.6708 15.4375 22.4792C15.4375 21.2875 16.4125 20.3125 17.6042 20.3125C18.7958 20.3125 19.7708 21.2875 19.7708 22.4792C19.7708 23.6708 18.7958 24.6458 17.6042 24.6458ZM17.6042 21.9375C17.3008 21.9375 17.0625 22.1758 17.0625 22.4792C17.0625 22.7825 17.3008 23.0208 17.6042 23.0208C17.9075 23.0208 18.1458 22.7825 18.1458 22.4792C18.1458 22.1758 17.9075 21.9375 17.6042 21.9375Z" fill="white"/>
<path d="M8.93742 24.6458C7.74575 24.6458 6.77075 23.6708 6.77075 22.4792C6.77075 21.2875 7.74575 20.3125 8.93742 20.3125C10.1291 20.3125 11.1041 21.2875 11.1041 22.4792C11.1041 23.6708 10.1291 24.6458 8.93742 24.6458ZM8.93742 21.9375C8.63409 21.9375 8.39575 22.1758 8.39575 22.4792C8.39575 22.7825 8.63409 23.0208 8.93742 23.0208C9.24075 23.0208 9.47909 22.7825 9.47909 22.4792C9.47909 22.1758 9.24075 21.9375 8.93742 21.9375Z" fill="white"/>
<path d="M22.75 9.47913H9.75C9.30583 9.47913 8.9375 9.11079 8.9375 8.66663C8.9375 8.22246 9.30583 7.85413 9.75 7.85413H22.75C23.1942 7.85413 23.5625 8.22246 23.5625 8.66663C23.5625 9.11079 23.1942 9.47913 22.75 9.47913Z" fill="white"/>
</svg>
